# xmcd
#
# Track frame offsets: 
#        150
#        25908
#        45398
#        60988
#        86361
#        111879
#        124656
#        146434
#        166155
#        186313
#
# Disc length: 2881 seconds
#
# Revision: 0
# Processed by: cddbd v1.5.2PL0 Copyright (c) Steve Scherf et al.
# Submitted via: ExactAudioCopy v0.95a5
#
DISCID=780b3f0a
DTITLE=Borderlands All-Stars - It Ain't That Type of Party
DYEAR=1999
DGENRE=Power Ballad
TTITLE0=Loosen the Grip
TTITLE1=Wooden Boogie
TTITLE2=Handsome and Homeless
TTITLE3=Limp-A-Long
TTITLE4=Suck It Up
TTITLE5=Lovebag (Bag of Love)
TTITLE6=Bring It
TTITLE7=Luscious Luther's Lament
TTITLE8=Blindness
TTITLE9=99s
EXTD=
EXTT0=
EXTT1=
EXTT2=
EXTT3=
EXTT4=
EXTT5=
EXTT6=
EXTT7=
EXTT8=
EXTT9=
PLAYORDER=
